<svg width="40" height="40" viewBox="0 0 40 40" fill="none" xmlns="http://www.w3.org/2000/svg">
<path d="M5 13.3332C5 14.2498 5.75 14.9998 6.66667 14.9998C7.58333 14.9998 8.33333 14.2498 8.33333 13.3332V9.99984H11.6667C12.5833 9.99984 13.3333 9.24984 13.3333 8.33317C13.3333 7.4165 12.5833 6.6665 11.6667 6.6665H8.33333V3.33317C8.33333 2.4165 7.58333 1.6665 6.66667 1.6665C5.75 1.6665 5 2.4165 5 3.33317V6.6665H1.66667C0.75 6.6665 0 7.4165 0 8.33317C0 9.24984 0.75 9.99984 1.66667 9.99984H5V13.3332Z" fill="white"/>
<path d="M21.666 28.3335C24.4274 28.3335 26.666 26.0949 26.666 23.3335C26.666 20.5721 24.4274 18.3335 21.666 18.3335C18.9046 18.3335 16.666 20.5721 16.666 23.3335C16.666 26.0949 18.9046 28.3335 21.666 28.3335Z" fill="white"/>
<path d="M35 9.99984H29.7167L27.65 7.74984C27.3388 7.40963 26.9603 7.1377 26.5386 6.95122C26.1169 6.76475 25.6611 6.6678 25.2 6.6665H14.5333C14.8167 7.1665 15 7.7165 15 8.33317C15 10.1665 13.5 11.6665 11.6667 11.6665H10V13.3332C10 15.1665 8.5 16.6665 6.66667 16.6665C6.05 16.6665 5.5 16.4832 5 16.1998V33.3332C5 35.1665 6.5 36.6665 8.33333 36.6665H35C36.8333 36.6665 38.3333 35.1665 38.3333 33.3332V13.3332C38.3333 11.4998 36.8333 9.99984 35 9.99984ZM21.6667 31.6665C17.0667 31.6665 13.3333 27.9332 13.3333 23.3332C13.3333 18.7332 17.0667 14.9998 21.6667 14.9998C26.2667 14.9998 30 18.7332 30 23.3332C30 27.9332 26.2667 31.6665 21.6667 31.6665Z" fill="white"/>
</svg>
