<svg width="28" height="28" viewBox="0 0 28 28" fill="none" xmlns="http://www.w3.org/2000/svg">
<path d="M8.29268 19.9415L10.6407 19.2641L24.778 4.95745C24.8895 4.84318 24.9516 4.68963 24.9509 4.52997C24.9501 4.3703 24.8866 4.21734 24.774 4.10412L23.9273 3.24812C23.8726 3.1919 23.8073 3.14715 23.7351 3.11646C23.6629 3.08578 23.5853 3.06979 23.5069 3.06941C23.4284 3.06904 23.3507 3.0843 23.2782 3.1143C23.2057 3.14429 23.1399 3.18843 23.0847 3.24412L8.98468 17.5135L8.29268 19.9415ZM25.6033 1.55212L26.45 2.40945C27.618 3.59212 27.6287 5.50012 26.4713 6.67079L11.9033 21.4148L6.88468 22.8601C6.73296 22.9028 6.57433 22.9151 6.41784 22.8965C6.26134 22.8778 6.11006 22.8285 5.97263 22.7513C5.8352 22.6742 5.7143 22.5707 5.61685 22.4469C5.5194 22.323 5.44731 22.1812 5.40468 22.0295C5.33929 21.8094 5.33837 21.5753 5.40202 21.3548L6.86202 16.2348L21.3913 1.52945C21.6676 1.25126 21.9965 1.03087 22.3589 0.881124C22.7212 0.731378 23.1098 0.655279 23.5018 0.657264C23.8939 0.65925 24.2816 0.739281 24.6424 0.89269C25.0033 1.0461 25.3299 1.27115 25.6033 1.55212ZM10.2447 3.08945C10.906 3.08945 11.442 3.63212 11.442 4.30145C11.4431 4.45968 11.4129 4.61656 11.3533 4.76312C11.2937 4.90969 11.2058 5.04307 11.0946 5.15563C10.9834 5.26819 10.8511 5.35773 10.7052 5.41913C10.5594 5.48053 10.4029 5.51258 10.2447 5.51345H5.45535C4.13268 5.51345 3.06068 6.59879 3.06068 7.93612V22.4775C3.06068 23.8161 4.13268 24.9015 5.45535 24.9015H19.8233C21.146 24.9015 22.2194 23.8161 22.2194 22.4775V17.6308C22.2194 16.9615 22.7554 16.4188 23.4167 16.4188C24.078 16.4188 24.614 16.9615 24.614 17.6321V22.4775C24.614 25.1548 22.4687 27.3255 19.8233 27.3255H5.45535C2.81002 27.3255 0.666016 25.1548 0.666016 22.4775V7.93612C0.666016 5.26012 2.81002 3.08945 5.45535 3.08945H10.2447Z" fill="#3D55DD"/>
</svg>
